<svg version="1.1" id="Layer_2" xmlns="http://www.w3.org/2000/svg" xmlns:xlink="http://www.w3.org/1999/xlink" x="0px" y="0px"
	 viewBox="0 0 1280 320" enable-background="new 0 0 1280 320" xml:space="preserve">
<g>
	<g>
		<path fill="#004B87" d="M415.2,164.2h-27.5v26.3h27.5v30c-7,3.2-17.8,5.4-29.6,5.4c-4.8,0-9.4-0.4-13.7-1.2
			c-29.8-5.4-46.9-28.7-46.9-62.1c0-37.7,22.6-64,65.4-64c19.1,0,35,4.8,49,11.8V80.2c-13.5-4.8-30.7-8.9-51.4-8.9
			c-58.9,0-97.4,39.5-97.4,93.4c0,47.5,30,83.2,81.3,87.7c3.7,0.3,7.4,0.5,11.3,0.5c24.7,0,48.4-6.2,64.6-14.3v-48.2v-26.3H415.2z"
			/>
		<path fill="#004B87" d="M467.9,186.8c0-38.2,21-67,57.3-67c35.8,0,56.5,25.8,56.5,68.1v7.5h-81.5c0.5,19.6,14.5,32.3,35.8,32.3
			c12.9,0,23.1-3.5,32.3-8.6l9.7,22.1c-13.4,8.3-29.3,11.8-44.9,11.8C486.5,252.9,467.9,221.2,467.9,186.8z M549.2,173
			c-0.5-14.5-7.5-28.8-24.5-28.8c-15.9,0-24.8,13.5-24.8,28.8H549.2z"/>
		<path fill="#004B87" d="M596.2,186.2c0-38.2,25.6-66.4,63.5-66.4c37.9,0,63.8,28.2,63.8,66.4c0,38.2-25.8,66.7-63.8,66.7
			C621.8,252.9,596.2,224.4,596.2,186.2z M690.4,186.2c0-23.4-10.5-40.6-30.7-40.6c-20.2,0-30.7,17.2-30.7,40.6
			c0,23.7,10.5,40.9,30.7,40.9C679.9,227.1,690.4,209.9,690.4,186.2z"/>
		<path fill="#004B87" d="M742.8,123H770l3.5,14.3c11.6-11.6,22.1-17.5,35-17.5c5.9,0,12.9,1.6,18,5.1L815.2,152
			c-5.6-3.5-10.8-4.3-14.5-4.3c-8.3,0-15.3,3.5-25.8,12.7v89.9h-32L742.8,123L742.8,123z"/>
		<path fill="#004B87" d="M820.7,276.6c0-14,9.7-25,22.9-30.7c-5.4-3.2-8.3-9.1-8.3-15.9c0-7.5,4.8-16.7,15.3-24
			c-13.5-7.8-21.3-22.6-21.3-39.5c0-23.4,17.2-46.8,51.9-46.8c11.3,0,20.2,2.7,25.3,5.7c1.4,0.5,2.2,0.3,3.2-0.5
			c6.7-6.7,15.1-11,30.7-11c3,0,6.7,0.3,8.6,0.5l-6.4,23.1c-3-0.8-6.5-1.4-9.4-1.4c-2.7,0-6.7,0.6-9.4,2.2
			c7.5,8.1,11.3,18.8,11.3,30.1c0,28.5-21.8,47.1-52.7,47.1c-5.9,0-11.3-0.8-15.6-2.2c-2.4,4-3.2,6.7-3.2,9.4
			c0,22.9,83.7,1.6,83.7,49.2c0,23.1-23.1,42-67.2,42C842.5,314,820.7,298.7,820.7,276.6z M916.5,275.5c0-18.3-39.5-14.5-56.7-21.2
			c-4,3-10.2,8.3-10.2,16.7c0,12.6,13.4,20.5,34.7,20.5C903.6,291.4,916.5,284.9,916.5,275.5z M904.6,167.9
			c0-12.6-8.6-23.9-22.9-23.9c-12.6,0-22.1,8.3-22.1,23.7c0,12.7,8.1,23.7,22.3,23.7C895,191.3,904.6,183.3,904.6,167.9z"/>
		<path fill="#004B87" d="M964.2,86.5c0-10.8,8.3-19.4,19.6-19.4c11.3,0,19.9,8.4,19.9,19.4c0,10.5-8.6,19.1-19.9,19.1
			C972.6,105.6,964.2,97.3,964.2,86.5z M967.7,123h32.3v127.3h-32.3V123z"/>
		<path fill="#004B87" d="M1103.6,238.1c-9.1,8.3-20.7,14.8-36.6,14.8c-24.2,0-42.3-16.1-42.3-40.6c0-17.2,8.3-28,21.5-34.7
			c8.9-4.6,19.9-6.7,32.8-7.3l21.8-0.8v-4c0-14.8-9.7-21.2-24.5-21.2c-12.6,0-24.2,4-33.4,8.9l-10.5-20.7
			c15-8.4,31.5-12.6,49.2-12.6c34.2,0,51.1,15.6,51.1,46.3v51.7c0,14.8,0.5,25.8,2.4,32.6h-26.9L1103.6,238.1z M1083.6,191.6
			c-8.3,0.3-14.3,1.6-18.6,4c-5.4,3-7.8,8.1-7.8,14.5c0,11,7.3,17.5,18.9,17.5c11.8,0,20.4-5.9,24.7-9.4v-27.2L1083.6,191.6z"/>
		<path fill="#004B87" d="M1159.7,123h27.4l3.2,14.3c13.5-10.5,27.7-17.5,43.6-17.5c20.2,0,40.9,9.9,40.9,46.3v84.2h-32.3V176
			c0-15.6-3.2-28.3-19.6-28.3c-10.5,0-21.8,5.6-31.2,13.5v89h-32L1159.7,123L1159.7,123z"/>
	</g>
	<g>
		<path fill="#64A70B" d="M175.3,5.7c-22.3,0-42.4,9.1-57.1,23.7c-3.8,3.8-7.2,8-10.2,12.5c12.8-8.5,28.1-13.5,44.6-13.5h80.7v80.7
			c0,16.5-5,31.8-13.5,44.5c21.8-14.5,36.2-39.2,36.2-67.3V5.7L175.3,5.7L175.3,5.7z"/>
		<path fill="#004B87" d="M132,49C109.8,49,89.6,58,75,72.6c-3.7,3.7-7.1,7.8-10,12.2c12.8-8.6,28.3-13.7,44.9-13.7h80.7v80.7
			c0,16.6-5,32-13.7,44.9c21.6-14.5,35.8-39.1,35.8-67V49H132z"/>
		<path fill="#64A70B" d="M170,91.7v80.7c0,44.6-36.1,80.7-80.7,80.7H8.6v-80.7c0-44.6,36.1-80.7,80.7-80.7H170z M63.3,229.5
			c5.1-2.7,6.7-5.9,6.7-14v-23.8H46.2c-9.3,0-14,1.9-16.9,6.7l-0.5,0.9h33.7v30.7L63.3,229.5z M97.1,236.4c6.1-3.4,7.6-6.2,8-14.4
			v-65.3H41.2c-10.4,0-13.4,3.4-16.3,7.8l-0.6,0.9h71.9v71.6L97.1,236.4z M132.2,214.9c6.1-4.1,7.7-6.1,8.2-14.5v-79H61
			c-10.1,0-14.5,4.6-16.9,8.1l-0.6,0.9l87.9,0v85.1L132.2,214.9z"/>
	</g>
</g>
</svg>
